<?xml version="1.0" encoding="UTF-8"?>
<svg id="Logo" xmlns="http://www.w3.org/2000/svg" viewBox="0 0 1065.35 153.81">
  <defs>
    <style>
      .cls-1 {
        fill: #e6e7e8;
      }
    </style>
  </defs>
  <path class="cls-1" d="m6.44,139.91v-23.47c0-1.6,1.82-2.47,3.1-1.51,2.39,1.79,4.75,3.22,7.08,4.27,3.33,1.51,6.7,2.26,10.09,2.26,4.65,0,8.31-1.23,10.99-3.68,2.67-2.45,4.01-5.78,4.01-9.99,0-5.22-3.62-10.87-10.84-16.97-2.01-1.7-3.52-3.02-4.53-3.96-8.42-7.54-14.21-14.32-17.35-20.32-3.14-6-4.71-12.81-4.71-20.41,0-11.88,3.35-21.48,10.04-28.81,6.7-7.32,15.45-10.98,26.26-10.98,3.83,0,7.62.55,11.36,1.65,3.43,1.01,7.04,2.54,10.82,4.58.62.34,1.01,1,1.01,1.71v20.15c0,1.4-1.47,2.33-2.74,1.74-3.54-1.64-6.38-2.81-8.52-3.51-2.67-.88-5.05-1.32-7.12-1.32-3.96,0-7.2,1.24-9.71,3.72-2.51,2.48-3.77,5.74-3.77,9.76,0,3.52.94,6.8,2.83,9.85,1.89,3.05,6.28,7.56,13.2,13.53,9.24,7.92,15.18,14.51,17.82,19.76,2.64,5.25,3.96,11.58,3.96,19,0,12.51-3.54,22.39-10.61,29.65-7.07,7.26-16.71,10.89-28.9,10.89-4.65,0-8.94-.54-12.87-1.6-3.58-.97-6.91-2.41-9.99-4.33-.56-.35-.9-.98-.9-1.64Z"/>
  <path class="cls-1" d="m80.93,143.86V10.04c0-1.06.86-1.92,1.92-1.92h23.31c1.06,0,1.92.86,1.92,1.92v47.07c0,1.06.86,1.92,1.92,1.92h26.89c1.06,0,1.92-.86,1.92-1.92V10.04c0-1.06.86-1.92,1.92-1.92h23.59c1.06,0,1.92.86,1.92,1.92v133.82c0,1.06-.86,1.92-1.92,1.92h-23.59c-1.06,0-1.92-.86-1.92-1.92v-56.03c0-1.06-.86-1.92-1.92-1.92h-26.89c-1.06,0-1.92.86-1.92,1.92v56.03c0,1.06-.86,1.92-1.92,1.92h-23.31c-1.06,0-1.92-.86-1.92-1.92Z"/>
  <path class="cls-1" d="m259.4,8.12c1.06,0,1.92.86,1.92,1.92v84.54c0,10.56-.31,18.06-.94,22.49-.63,4.43-1.67,8.09-3.11,10.98-3.33,6.6-8.16,11.49-14.47,14.66-6.32,3.17-14.44,4.76-24.38,4.76s-18.09-1.59-24.47-4.76c-6.38-3.17-11.21-8.06-14.47-14.66-1.51-2.95-2.58-6.66-3.21-11.13-.63-4.46-.94-11.91-.94-22.35V10.04c0-1.06.86-1.92,1.92-1.92h23.59c1.06,0,1.92.86,1.92,1.92v86.71c0,11.25,1.15,18.5,3.44,21.74,2.29,3.24,6.36,4.86,12.21,4.86s10.07-1.65,12.31-4.95c2.23-3.3,3.35-10.51,3.35-21.64V10.04c0-1.06.86-1.92,1.92-1.92h23.4Z"/>
  <path class="cls-1" d="m306.47,144.39L268.34,10.57c-.35-1.23.57-2.45,1.85-2.45h23.78c.88,0,1.64.59,1.86,1.44l15.84,60.89c1.57,6.1,2.91,12.6,4.01,19.52.21,1.3.4,2.6.59,3.92.32,2.2,3.49,2.18,3.79-.02.14-.97.28-1.94.42-2.91,1.04-6.82,2.34-13.47,3.91-19.94l15.48-61.44c.22-.85.98-1.45,1.87-1.45h24.53c1.28,0,2.2,1.22,1.85,2.45l-37.85,133.82c-.23.83-.99,1.4-1.85,1.4h-20.1c-.86,0-1.61-.57-1.85-1.4Z"/>
  <path class="cls-1" d="m464.25,78.93c0,21-4.4,37.67-13.2,50.02-8.8,12.35-20.56,18.53-35.27,18.53s-27.06-6.21-35.55-18.62c-8.49-12.41-12.73-29.69-12.73-51.81s4.29-39.37,12.87-51.91c8.58-12.54,20.38-18.81,35.41-18.81s26.93,6.41,35.55,19.24c8.61,12.82,12.92,30.62,12.92,53.37Zm-48.47,42.34c7.04,0,12.3-3.68,15.79-11.03,3.49-7.36,5.23-18.42,5.23-33.19s-1.74-26.03-5.23-33.38c-3.49-7.35-8.76-11.03-15.79-11.03s-12.29,3.66-15.75,10.98c-3.46,7.32-5.19,18.47-5.19,33.43s1.73,25.99,5.19,33.29c3.46,7.29,8.71,10.94,15.75,10.94Z"/>
  <path class="cls-1" d="m485.98,143.68l13.11-133.82c.1-.99.92-1.74,1.91-1.74h31.94c.96,0,1.78.71,1.91,1.66l6.94,50.86c1.07,7.98,1.96,15.64,2.69,22.96h0c.23,2.31,3.59,2.32,3.83.01.28-2.71.55-5.16.79-7.37.79-7.01,1.43-12.21,1.93-15.61l8.59-50.92c.16-.93.96-1.6,1.9-1.6h31.59c1,0,1.83.77,1.92,1.76l11.27,133.82c.09,1.12-.79,2.09-1.92,2.09h-23.89c-1.03,0-1.87-.81-1.92-1.84l-2.84-62.1c-.06-1.51-.16-3.77-.28-6.79-.35-7.06-.62-13.58-.82-19.57-.08-2.33-3.45-2.54-3.82-.24l-14.24,88.91c-.15.93-.95,1.62-1.9,1.62h-16.6c-.95,0-1.76-.7-1.9-1.64l-13.44-89.63c-.34-2.3-3.71-2.14-3.82.18-.27,5.6-.63,11.83-1.07,18.67-.25,3.96-.44,6.92-.57,8.86l-4.12,61.76c-.07,1.01-.91,1.8-1.92,1.8h-23.33c-1.14,0-2.03-.98-1.91-2.11Z"/>
  <path class="cls-1" d="m614.18,143.43l31.16-133.82c.2-.87.98-1.49,1.87-1.49h25.69c.9,0,1.68.63,1.88,1.51l29.7,133.82c.27,1.2-.65,2.34-1.88,2.34h-23.45c-.92,0-1.72-.66-1.89-1.56l-4.02-21.02c-.17-.91-.97-1.56-1.89-1.56h-24.42c-.93,0-1.73.67-1.89,1.59l-3.68,20.96c-.16.92-.96,1.59-1.89,1.59h-23.4c-1.24,0-2.15-1.15-1.87-2.36Zm38.37-43.18h13.73c1.21,0,2.11-1.09,1.88-2.27-1.71-8.93-3.26-18.25-4.65-27.95-.82-5.71-1.58-11.6-2.29-17.66-.26-2.25-3.5-2.31-3.81-.07-.73,5.21-1.48,10.46-2.25,15.75-1.44,9.87-2.94,19.86-4.51,29.98-.18,1.17.72,2.22,1.9,2.22Z"/>
  <path class="cls-1" d="m715,143.86V10.04c0-1.06.86-1.92,1.92-1.92h23.31c1.06,0,1.92.86,1.92,1.92v106.95c0,1.06.86,1.92,1.92,1.92h27.46c1.06,0,1.92.86,1.92,1.92v23.03c0,1.06-.86,1.92-1.92,1.92h-54.62c-1.06,0-1.92-.86-1.92-1.92Z"/>
  <path class="cls-1" d="m784.31,143.86V10.04c0-1.06.86-1.92,1.92-1.92h23.31c1.06,0,1.92.86,1.92,1.92v106.95c0,1.06.86,1.92,1.92,1.92h27.46c1.06,0,1.92.86,1.92,1.92v23.03c0,1.06-.86,1.92-1.92,1.92h-54.62c-1.06,0-1.92-.86-1.92-1.92Z"/>
  <path class="cls-1" d="m854.74,143.86V10.04c0-1.06.86-1.92,1.92-1.92h24.16c1.06,0,1.92.86,1.92,1.92v133.82c0,1.06-.86,1.92-1.92,1.92h-24.16c-1.06,0-1.92-.86-1.92-1.92Z"/>
  <path class="cls-1" d="m968.85,142.95c0,.8-.49,1.53-1.24,1.81-2.23.83-4.47,1.47-6.73,1.92-2.67.53-5.36.8-8.06.8-17.54,0-31.79-6.38-42.76-19.14-10.97-12.76-16.45-29.48-16.45-50.16s5.36-38.85,16.08-52.05c10.72-13.2,24.72-19.8,42.01-19.8,3.2,0,6.22.27,9.05.8,2.4.45,4.7,1.12,6.91,2,.73.29,1.2,1.01,1.2,1.8v21.68c0,1.31-1.29,2.24-2.53,1.82-1.75-.6-3.47-1.07-5.15-1.41-2.48-.5-4.92-.75-7.31-.75-9.18,0-16.63,4.05-22.35,12.16-5.72,8.11-8.58,18.86-8.58,32.25s2.94,23.32,8.82,31.31c5.88,7.98,13.44,11.98,22.68,11.98,2.32,0,4.7-.28,7.12-.85,1.57-.37,3.15-.84,4.73-1.42,1.25-.46,2.58.47,2.58,1.8v23.47Z"/>
  <path class="cls-1" d="m978.19,143.68V10.04c0-1.06.86-1.92,1.92-1.92h22.74c1.06,0,1.92.86,1.92,1.92v49.13c0,2.08,2.83,2.68,3.68.79l22.68-50.7c.31-.69,1-1.14,1.76-1.14h24.34c1.4,0,2.33,1.44,1.75,2.72l-26.82,59.25c-.21.47-.23,1.01-.04,1.5l28,71.39c.49,1.26-.44,2.63-1.79,2.63h-25.21c-.78,0-1.49-.48-1.78-1.2l-22.87-56.66c-.79-1.96-3.71-1.39-3.71.72v55.22c0,1.06-.86,1.92-1.92,1.92h-22.74c-1.06,0-1.92-.86-1.92-1.92Z"/>
</svg>