<?xml version="1.0" encoding="UTF-8"?>
<svg id="Logo" xmlns="http://www.w3.org/2000/svg" viewBox="0 0 306.38 80.55">
  <defs>
    <style>
      .cls-1 {
        fill: #414042;
      }
    </style>
  </defs>
  <path class="cls-1" d="m22.19,78.35c-2.67,0-5.16-.19-7.46-.56-2.3-.38-4.39-.88-6.27-1.5-1.72-.57-4.31-1.83-5.83-2.56-.25-.12-.4-.37-.4-.64l.02-12.86c0-.52.54-.86,1.02-.64,2.02.94,4.31,1.82,6.86,2.64,3,.96,6.19,1.44,9.58,1.44s5.95-.57,7.46-1.7c1.51-1.13,2.26-2.8,2.26-5.03v-.96c0-1.54-.35-2.85-1.04-3.93-.7-1.07-1.8-2.07-3.31-2.99-1.51-.92-3.5-1.97-5.99-3.14-3.77-1.81-6.92-3.68-9.46-5.62-2.54-1.94-4.47-4.21-5.79-6.81-1.32-2.6-1.98-5.76-1.98-9.49v-1.13c0-6.18,1.9-10.96,5.71-14.35,3.8-3.39,9.34-5.08,16.61-5.08,4.1,0,7.66.41,10.65,1.24,2.82.78,6.49,1.9,8.64,3.01.24.12.38.37.37.64l-.16,12.54c0,.53-.56.86-1.04.62-1.85-.94-3.9-1.75-6.15-2.45-2.67-.83-5.61-1.24-8.81-1.24-2.18,0-3.94.24-5.25.71-1.32.47-2.27,1.16-2.85,2.06-.58.9-.88,2.03-.88,3.39v.34c0,1.43.34,2.69,1.02,3.79.68,1.09,1.84,2.17,3.47,3.22s3.87,2.28,6.7,3.67c3.69,1.73,6.75,3.49,9.18,5.28,2.43,1.79,4.25,3.91,5.45,6.36s1.81,5.59,1.81,9.43v1.36c0,6.86-1.99,12.06-5.96,15.62-3.97,3.56-10.03,5.34-18.16,5.34Z"/>
  <path class="cls-1" d="m75.18,5.51v70.78c0,.39-.32.71-.71.71h-15.3c-.39,0-.71-.32-.71-.71V5.51c0-.39.32-.71.71-.71h15.3c.39,0,.71.32.71.71Zm-6.5,41v-12.75c0-.39.32-.71.71-.71h28.69c.39,0,.71.32.71.71v12.75c0,.39-.32.71-.71.71h-28.69c-.39,0-.71-.32-.71-.71ZM109.75,5.51v70.78c0,.39-.32.71-.71.71h-15.3c-.39,0-.71-.32-.71-.71V5.51c0-.39.32-.71.71-.71h15.3c.39,0,.71.32.71.71Z"/>
  <path class="cls-1" d="m149.75,78.47c-8.7,0-15.14-2.23-19.32-6.69-4.18-4.46-6.27-11.03-6.27-19.69V5.51c0-.39.32-.71.71-.71h15.24c.39,0,.71.32.71.71v47.42c0,3.84.7,6.71,2.09,8.62,1.39,1.9,3.67,2.85,6.84,2.85s5.43-.95,6.81-2.85c1.37-1.9,2.06-4.77,2.06-8.62V5.51c0-.39.32-.71.71-.71h15.3c.39,0,.71.32.71.71v46.57c0,8.66-2.09,15.23-6.27,19.69-4.18,4.46-10.62,6.69-19.32,6.69Z"/>
  <path class="cls-1" d="m225.55,77h-24.6c-.34,0-.63-.24-.7-.57l-14.62-70.78c-.09-.44.25-.86.7-.86h15.47c.35,0,.65.25.7.59l10.07,59.46h1.24l10.18-59.46c.06-.34.36-.59.7-.59h15.42c.45,0,.79.41.7.86l-14.56,70.78c-.07.33-.36.57-.7.57Z"/>
  <path class="cls-1" d="m274.66,78.47c-8.81,0-15.41-2.32-19.77-6.95s-6.55-11.43-6.55-20.39v-20.17c0-8.93,2.19-15.75,6.58-20.48,4.39-4.73,10.97-7.09,19.75-7.09s15.37,2.36,19.77,7.09c4.41,4.73,6.61,11.55,6.61,20.48v20.17c0,8.96-2.2,15.76-6.58,20.39-4.39,4.63-10.99,6.95-19.8,6.95Zm0-13.84c3.31,0,5.72-1.04,7.23-3.13,1.51-2.09,2.26-5.15,2.26-9.18v-22.54c0-4.14-.75-7.27-2.26-9.38-1.51-2.11-3.92-3.16-7.23-3.16s-5.68,1.05-7.2,3.16c-1.53,2.11-2.29,5.24-2.29,9.38v22.54c0,4.03.76,7.09,2.29,9.18,1.53,2.09,3.93,3.13,7.2,3.13Z"/>
</svg>